<svg width="135" height="40" viewBox="0 0 135 40" fill="none" xmlns="http://www.w3.org/2000/svg">
<path d="M30.915 29.3531C30.915 30.463 30.014 31.3627 28.9026 31.3627H27.3847V27.7825C24.7987 30.7063 21.8204 32.1683 18.4499 32.1683C15.0794 32.1683 12.1883 30.9003 9.77662 28.3643C7.39401 25.7984 6.2027 22.7552 6.2027 19.2347C6.2027 15.6843 7.40854 12.656 9.82021 10.1499C12.2319 7.61386 15.1666 6.34587 18.6243 6.34587C22.111 6.34587 25.0312 7.79288 27.3847 10.6869V6.97241H30.915V29.3531ZM18.7114 28.7223C21.1231 28.7223 23.2006 27.8272 24.944 26.0371C26.6874 24.247 27.559 22.0243 27.559 19.3689C27.559 16.6838 26.7019 14.4461 24.9876 12.656C23.2733 10.8361 21.1667 9.9261 18.6678 9.9261C16.1981 9.9261 14.106 10.8659 12.3917 12.7455C10.6774 14.5953 9.82021 16.7882 9.82021 19.3242C9.82021 21.8602 10.6919 24.068 12.4353 25.9476C14.1786 27.7974 16.2707 28.7223 18.7114 28.7223Z" fill="#222124"/>
<path d="M49.3781 9.83659L47.0682 12.298C45.3538 10.6571 43.7848 9.83659 42.361 9.83659C41.4603 9.83659 40.7048 10.1349 40.0947 10.7316C39.4845 11.2985 39.1794 12.0146 39.1794 12.8798C39.1794 13.7152 39.5135 14.4611 40.1818 15.1174C40.8792 15.744 42.0995 16.5346 43.8429 17.4893C45.5863 18.4142 46.9229 19.4435 47.8527 20.5773C48.8115 21.711 49.291 23.0983 49.291 24.7393C49.291 26.8277 48.5791 28.588 47.1553 30.0201C45.7606 31.4522 44.0318 32.1683 41.9688 32.1683C39.0922 32.1683 36.6951 30.9152 34.7774 28.409L37.0438 25.8134C38.6128 27.693 40.2109 28.6328 41.838 28.6328C42.9422 28.6328 43.8865 28.2598 44.671 27.514C45.4555 26.7681 45.8478 25.9029 45.8478 24.9183C45.8478 23.9039 45.4846 23.0685 44.7582 22.4121C44.0608 21.7259 42.8405 20.9353 41.0971 20.0402C39.3828 19.1452 38.0753 18.1606 37.1745 17.0865C36.3028 15.9826 35.867 14.5506 35.867 12.7903C35.867 11.0002 36.4917 9.47857 37.7411 8.22549C39.0196 6.97241 40.6903 6.34587 42.7533 6.34587C44.8454 6.34587 47.0536 7.50944 49.3781 9.83659Z" fill="#222124"/>
<path d="M57.5151 10.6869C59.8687 7.79288 62.7743 6.34587 66.232 6.34587C69.6897 6.34587 72.6244 7.61386 75.0361 10.1499C77.4477 12.656 78.6536 15.6843 78.6536 19.2347C78.6536 22.7851 77.4623 25.8283 75.0796 28.3643C72.697 30.9003 69.8204 32.1683 66.4499 32.1683C63.0794 32.1683 60.1011 30.7063 57.5151 27.7825V37.9904C57.5151 39.1003 56.6141 40 55.5027 40H53.9412V6.97241H57.5151V10.6869ZM66.232 28.7223C68.6146 28.7223 70.6776 27.8123 72.421 25.9924C74.1934 24.1426 75.0796 21.9199 75.0796 19.3242C75.0796 16.7285 74.208 14.5207 72.4646 12.7008C70.7503 10.851 68.6437 9.9261 66.1448 9.9261C63.646 9.9261 61.5394 10.8361 59.8251 12.656C58.1398 14.4461 57.2972 16.6689 57.2972 19.3242C57.2972 21.9795 58.1689 24.2172 59.9123 26.0371C61.6556 27.8272 63.7622 28.7223 66.232 28.7223Z" fill="#222124"/>
<path d="M86.7882 29.3531C86.7882 30.463 85.8872 31.3627 84.7757 31.3627H83.1707V6.97241H86.7882V29.3531Z" fill="#222124"/>
<path d="M102.356 7.33043L100.482 10.4631C99.9882 10.1946 99.5088 10.0604 99.0439 10.0604C98.1432 10.0604 97.3296 10.5228 96.6032 11.4477C95.8768 12.3427 95.3247 13.5362 94.947 15.0279C94.5983 16.4898 94.424 19.1452 94.424 22.9939V29.3531C94.424 30.463 93.5229 31.3627 92.4115 31.3627H90.7629V6.97241H94.424V9.61283C95.1504 8.50892 95.8768 7.68845 96.6032 7.15142C97.3586 6.61439 98.2013 6.34587 99.1311 6.34587C100.09 6.34587 101.165 6.67406 102.356 7.33043Z" fill="#222124"/>
<path d="M108.623 29.3531C108.623 30.463 107.722 31.3627 106.61 31.3627H105.005V6.97241H108.623V29.3531Z" fill="#222124"/>
<path d="M135 29.3531C135 30.463 134.099 31.3627 132.988 31.3627H131.426V19.727C131.426 17.0418 131.295 15.2218 131.034 14.2671C130.801 13.2826 130.438 12.4621 129.944 11.8057C129.479 11.1195 128.869 10.6123 128.114 10.2841C127.387 9.95593 126.487 9.79183 125.411 9.79183C124.365 9.79183 123.334 10.0604 122.317 10.5974C121.3 11.1344 120.428 11.8803 119.702 12.835C118.975 13.7898 118.467 14.8042 118.176 15.8782C117.915 16.9523 117.784 19.1004 117.784 22.3226V29.3531C117.784 30.463 116.883 31.3627 115.772 31.3627H114.167V6.97241H117.784V10.6421C120.138 7.77796 122.927 6.34587 126.152 6.34587C127.867 6.34587 129.421 6.80832 130.816 7.73321C132.211 8.62826 133.257 9.88134 133.954 11.4924C134.651 13.0737 135 15.5202 135 18.8319V29.3531Z" fill="#222124"/>
<path d="M8.02703 4.0367C8.02703 6.26611 6.23012 8.0734 4.01351 8.0734C1.79691 8.0734 0 6.26611 0 4.0367C0 1.80729 1.79691 0 4.01351 0C6.23012 0 8.02703 1.80729 8.02703 4.0367Z" fill="#FFB23F"/>
</svg>
