<svg width="31" height="33" viewBox="0 0 31 33" fill="none" xmlns="http://www.w3.org/2000/svg">
<path d="M30.915 29.3531C30.915 30.463 30.014 31.3627 28.9026 31.3627H27.3847V27.7825C24.7987 30.7063 21.8204 32.1683 18.4499 32.1683C15.0794 32.1683 12.1883 30.9003 9.77662 28.3643C7.39401 25.7984 6.2027 22.7552 6.2027 19.2347C6.2027 15.6843 7.40854 12.656 9.82021 10.1499C12.2319 7.61386 15.1666 6.34587 18.6243 6.34587C22.111 6.34587 25.0312 7.79288 27.3847 10.6869V6.97241H30.915V29.3531ZM18.7114 28.7223C21.1231 28.7223 23.2006 27.8272 24.944 26.0371C26.6874 24.247 27.559 22.0243 27.559 19.3689C27.559 16.6838 26.7019 14.4461 24.9876 12.656C23.2733 10.8361 21.1667 9.9261 18.6678 9.9261C16.1981 9.9261 14.106 10.8659 12.3917 12.7455C10.6774 14.5953 9.82021 16.7882 9.82021 19.3242C9.82021 21.8602 10.6919 24.068 12.4353 25.9476C14.1786 27.7974 16.2707 28.7223 18.7114 28.7223Z" fill="#222124"/>
<path d="M8.02703 4.0367C8.02703 6.26611 6.23012 8.0734 4.01351 8.0734C1.79691 8.0734 0 6.26611 0 4.0367C0 1.80729 1.79691 0 4.01351 0C6.23012 0 8.02703 1.80729 8.02703 4.0367Z" fill="#FFB23F"/>
</svg>
